PathFileType	4	(X/Y/Z)	C:/Users/beibeiliu/ov580/test_trc\sequence.3_training_dense_left.trc
DataRate	CameraRate	NumFrames	NumMarkers	Units	OrigDataRate	OrigDataStartFrame	OrigNumFrames
120	120	18	19	mm	120	1	72
Frame#	Time	ThumbCMC			ThumbMCP			ThumbIP			ThumbTip			IndexMCP			IndexPIP			IndexTip			MiddleMCP			MiddlePIP			MiddleTip			RingMCP			RingPIP			RingTip			PinkyMCP			PinkyPIP			PinkyTip			BackHand1			BackHand2			BackHand3	
		X0	Y0	Z0	X1	Y1	Z1	X2	Y2	Z2	X3	Y3	Z3	X4	Y4	Z4	X5	Y5	Z5	X6	Y6	Z6	X7	Y7	Z7	X8	Y8	Z8	X9	Y9	Z9	X10	Y10	Z10	X11	Y11	Z11	X12	Y12	Z12	X13	Y13	Z13	X14	Y14	Z14	X15	Y15	Z15	X16	Y16	Z16	X17	Y17	Z17	X18	Y18	Z18	
0	0	-146.007	25.0561	118.277	-119.262	17.9204	108.833	-98.0795	4.1032	93.1651	-87.6203	-21.7865	83.035	-115.393	-28.8889	70.2999	-97.4331	-44.107	62.7404	-80.6181	-66.4676	50.9457	-123	-45.9402	66.1643	-107.087	-63.8359	56.3011	-89.9574	-84.2653	45.2629	-134.677	-58.1436	70.8854	-123.115	-72.8363	61.8155	-106.791	-91.1662	50.4124	-153.192	-67.9717	84.4099	-140.442	-80.2034	76.0745	-122.811	-93.0823	60.6759	-173.258	-28.78	89.2669	-195.757	-9.16734	106.933	-165.098	4.41133	93.4758	
1	0.00833333	-163.841	30.6709	113.742	-138.463	32.9721	100.427	-119.817	21.3569	85.5673	-101.794	3.25297	72.8078	-124.493	-12.373	62.889	-103.536	-24.3945	52.0676	-85.918	-39.5806	39.4294	-125.46	-30.1652	58.9279	-110.224	-40.3544	50.5172	-89.5329	-57.0638	35.097	-138.096	-47.7754	67.1074	-119.649	-54.4375	56.3297	-98.5973	-69.1821	38.986	-150.889	-55.3537	83.57	-131.235	-67.9711	67.4526	-119.704	-76.0361	52.681	-181.783	-27.2662	91.0559	-202.539	-13.2028	104.807	-177.68	7.83727	90.8595	
2	0.0166667	-187.675	37.9388	108.305	-167.27	46.7838	92.487	-143.823	42.6004	69.0008	-128.802	31.5697	59.9607	-139.34	10.6638	47.662	-122.545	2.46276	38.8587	-104.749	-2.56202	22.6622	-141.633	-12.2196	49.4012	-121.229	-16.1704	36.3409	-101.107	-22.2225	18.7126	-144.281	-25.378	58.2621	-121.602	-32.4448	42.1094	-103.908	-40.3567	25.7828	-150.438	-42.4936	73.5898	-131.51	-47.3902	59.2048	-117.883	-50.3398	42.0462	-188.288	-24.9055	86.0356	-208.983	-15.9687	104.113	-197.504	9.36968	88.2836	
3	0.025	-212.263	41.6799	96.4614	-197.004	51.9571	80.7735	-179.836	54.9405	58.3482	-163.087	51.4319	44.7755	-167.893	22.6131	36.0305	-150.342	25.2668	18.6642	-134.439	17.38	6.91455	-163.54	5.10692	37.8161	-142.395	4.44773	19.4038	-124.237	1.84609	0.540597	-156.613	-9.0257	44.9208	-137.766	-10.9657	29.1735	-124.362	-11.1582	12.7349	-157.716	-22.2492	65.1643	-141.689	-22.1318	46.2383	-129.748	-26.6677	26.7679	-193.741	-19.3873	79.1841	-213.967	-22.1642	101.866	-214.526	9.16121	81.0688	
4	0.0333333	-235.364	34.5838	97.7863	-227.063	50.804	72.8564	-216.183	58.5248	49.7316	-198.281	57.1042	31.5809	-201.826	27.8165	28.6803	-186.776	30.8817	11.8433	-172.134	31.4525	-8.397	-186.828	12.9514	23.7281	-170.43	17.4783	5.7061	-157.476	17.3446	-12.797	-173.087	-2.96977	38.1212	-160.493	3.21328	16.1924	-146.139	3.38069	-4.05443	-165.91	-13.9667	54.612	-158.189	-6.31626	37.6272	-147.355	-10.1894	15.1544	-204.565	-18.9538	75.9987	-222.151	-19.6379	98.7934	-230.553	4.02548	80.2064	
5	0.0416667	-251.656	26.8649	94.8978	-249.399	41.6037	73.3647	-240.206	46.5962	45.6168	-227.116	48.9151	25.9154	-228.721	21.3495	26.9932	-211.455	24.3426	4.88198	-203.622	26.6937	-14.2436	-208.047	6.26504	22.0555	-199.321	12.7844	2.02576	-185.538	13.0856	-20.8582	-193.024	-4.66729	32.7415	-182.734	0.440582	9.72204	-174.003	1.81775	-9.95825	-184.454	-11.7454	48.8402	-178.003	-5.41215	32.1983	-168.229	-7.15102	8.11109	-219.418	-20.4678	78.4036	-228.365	-25.5409	103.265	-247.785	-1.98358	83.0576	
6	0.05	-271.778	15.4146	98.1456	-272.435	28.3345	73.3569	-266.395	31.3664	50.1177	-255.872	28.6587	26.9222	-252.526	1.12706	24.5893	-248.004	7.06411	6.52187	-237.227	4.74743	-16.2494	-236.307	-11.9904	20.9544	-232.695	-6.53316	1.59346	-223.884	-7.33541	-27.6328	-224.231	-17.803	32.1464	-215.179	-15.9721	7.90527	-211.653	-15.0039	-20.0948	-205.816	-25.4237	44.7063	-202.42	-20.3064	21.2128	-199.158	-22.9475	0.011278	-236.55	-30.1372	81.4413	-240.237	-36.5282	109.088	-264.094	-19.0225	90.0176	
7	0.0583333	-287.379	6.82202	106.265	-291.105	17.3224	78.5409	-293.002	15.2663	47.0593	-285.545	10.4755	25.1255	-284.855	-19.7658	30.1358	-281.281	-17.1558	4.63671	-273.606	-22.9515	-14.6145	-270.476	-33.636	24.7842	-267.719	-33.0631	2.87577	-266.663	-34.5542	-29.8223	-255.592	-39.7101	32.7958	-248.519	-42.929	7.33309	-248.094	-43.3988	-17.5922	-236.389	-46.46	41.8182	-236.173	-43.7485	22.9478	-236.685	-47.4585	-5.36029	-254.121	-47.3179	85.782	-256.938	-46.3076	112.162	-286.221	-29.1029	96.4511	
8	0.0666667	-296.54	9.06026	104.337	-302.287	16.3465	77.1374	-306.283	12.3183	51.6448	-303.356	1.37632	26.1276	-311.456	-24.6082	38.6969	-310.905	-28.2919	9.61604	-309.998	-32.3526	-15.5184	-301.409	-41.6781	34.546	-300.982	-48.2354	5.42462	-303.365	-51.2376	-21.528	-285.296	-51.8454	35.775	-284.682	-57.0625	11.7616	-289.394	-57.192	-16.6683	-264.688	-58.2391	48.2069	-269.445	-58.4085	25.9975	-274.106	-64.7565	-1.0491	-278.684	-49.3882	87.7952	-273.538	-46.7017	118.343	-299.995	-26.1705	102.514	
9	0.075	-291.61	23.3974	103.576	-300.024	36.9278	75.0466	-307.088	35.6908	50.2014	-303.644	20.7914	28.3705	-320.055	-3.58626	36.3597	-320.135	-9.88454	14.1143	-322.311	-17.1997	-11.9753	-315.95	-22.8281	30.9725	-318.885	-26.806	6.87316	-321.747	-33.1437	-19.8012	-304.61	-35.1346	33.6532	-304.209	-44.3056	12.6868	-309.47	-44.6587	-15.1063	-285.405	-45.4135	47.9029	-290.621	-50.1113	22.1091	-298.499	-53.28	0.136136	-292.658	-39.0944	86.9669	-288.638	-35.3872	112.877	-307.042	-6.93262	101.81	
10	0.0833333	-275.996	44.7517	99.9489	-275.979	57.4945	74.9067	-281.817	59.1766	47.3293	-284.624	47.6027	22.6264	-305.525	27.0274	30.7411	-307.751	26.7597	7.85183	-312.174	17.7805	-18.4308	-309.286	8.73107	23.9764	-310.808	7.21083	2.70385	-316.523	-0.372806	-23.8471	-302.478	-12.3589	30.2711	-306.602	-13.9919	7.85449	-312.982	-12.7329	-20.2852	-291.948	-23.2976	43.4682	-298.231	-25.4036	19.075	-305.518	-26.5032	-3.28692	-297.971	-14.1456	82.9382	-293.472	-11.9371	107.569	-300.468	18.646	96.5782	
11	0.0916667	-247.679	52.2836	102.156	-240.016	71.164	77.3089	-242.858	75.5062	49.4974	-247.774	63.7925	26.5524	-276.152	54.59	27.4276	-277.026	54.0249	2.93396	-282.432	49.1682	-17.5757	-286.36	37.7792	23.2884	-289.077	35.6003	-2.74314	-294.467	35.3394	-31.5887	-289.422	16.7001	28.2812	-291.272	18.6974	4.39713	-296.58	17.4084	-21.1797	-287.807	3.77815	35.3425	-289.259	2.42658	17.1485	-298.052	1.72436	-9.78446	-293.136	13.1074	77.3675	-290.301	10.1334	106.047	-278.271	44.8913	91.8141	
12	0.1	-222.675	51.448	101.028	-208.101	59.3428	80.254	-202.457	68.2973	52.9078	-208.118	63.4246	27.5864	-238.527	62.9572	26.5761	-236.425	63.6515	4.23895	-241.749	61.0786	-16.7547	-253.359	52.5582	20.5184	-254.916	50.4263	-5.37481	-257.978	50.6876	-29.5164	-268.219	32.7096	24.9895	-264.99	36.8894	-0.327598	-267.521	36.7218	-25.0792	-273.161	15.9786	36.3419	-271.923	17.9112	15.2371	-275.441	24.208	-12.6315	-271.176	33.5092	73.9063	-274.395	29.5387	106.203	-251.964	53.0515	93.4815	
13	0.108333	-196.108	39.203	109.008	-176.717	44.6123	84.8558	-170.519	47.6108	57.3727	-174.287	41.6179	32.4294	-205.514	49.7536	32.4261	-200.31	49.1578	9.81963	-201.482	48.0739	-18.3476	-220.609	46.2927	19.9178	-216.874	44.0047	-3.23779	-216.386	43.9941	-27.5625	-237.642	34.8313	23.6622	-235.816	32.9676	3.53463	-232.939	33.8584	-22.8306	-248.384	23.2638	33.5137	-247.059	20.5445	10.1568	-244.94	25.5306	-11.5858	-248.254	37.7444	73.5243	-254.787	39.6841	102.965	-225.443	53.4391	96.3211	
14	0.116667	-178.131	28.4827	114.156	-158.129	25.2868	95.4016	-147.645	23.5077	67.8583	-152.069	16.1624	43.1773	-178.74	29.2963	33.7667	-172.884	24.2164	13.1991	-170.051	20.1757	-12.1439	-192.761	27.3743	26.6606	-187.188	21.566	2.68403	-185.369	17.7522	-28.3701	-212.484	19.8453	27.0218	-208.829	15.3758	4.21286	-202.716	12.3218	-18.3227	-230.547	10.6323	34.0411	-226.014	6.78573	17.2307	-220.308	8.46233	-11.1622	-232.199	31.5625	75.5572	-234.605	35.2065	102.018	-204.348	43.2608	94.3876	
15	0.125	-167.629	21.6777	118.443	-147.264	15.4424	99.2821	-135.111	9.77703	71.5436	-133.998	-1.17482	53.7829	-158.691	10.493	41.6363	-149	1.55851	21.4366	-148.86	-8.02772	-5.57389	-177.239	6.02903	31.8824	-164.781	-3.48439	7.52089	-160.931	-10.5668	-15.7962	-195.51	-1.17796	32.938	-186.949	-9.43649	12.8828	-181.002	-16.7782	-11.7435	-213.372	-9.26821	39.7827	-203.398	-15.4863	23.2634	-195.348	-17.4427	-1.33606	-214.295	17.4137	74.1284	-223.406	27.2985	101.214	-189.203	35.008	92.3619	
16	0.133333	-166.191	27.2779	119.408	-142.081	20.9222	98.4467	-130.574	12.0821	78.0296	-127.04	-3.39215	55.7352	-151.51	1.78521	47.3449	-139.648	-13.4555	26.449	-133.925	-23.5476	6.86727	-167.693	-10.083	38.2707	-155.361	-22.4831	16.6976	-145.803	-32.7961	-5.03303	-178.718	-18.8446	39.2137	-172.035	-30.8865	18.761	-160.99	-40.2166	-4.56308	-196.877	-28.7438	47.4065	-187.664	-36.1256	32.5713	-178.086	-41.7905	10.8247	-210.287	4.47191	78.1437	-219.443	16.9278	97.0568	-189.348	27.5005	88.8652	
17	0.141667	-173.424	38.9229	112.057	-150.872	36.3892	98.6929	-134.392	27.462	77.2728	-124.476	10.3698	58.4813	-149.107	6.59577	48.0993	-134.604	-11.052	30.4565	-124.985	-23.0758	14.2712	-159.098	-14.089	38.2948	-144.853	-23.8652	24.0307	-131.902	-40.0088	0.368756	-171.959	-27.2109	43.7771	-160.967	-37.3953	29.1574	-142.777	-44.8245	8.7414	-185.694	-35.4943	57.9506	-172.777	-46.105	39.2788	-163.429	-51.5452	22.5075	-205.911	-4.06439	76.8785	-222.393	5.28933	95.9556	-197.446	24.3204	86.4433	
